<svg version="1.1" xmlns="http://www.w3.org/2000/svg" xmlns:xlink="http://www.w3.org/1999/xlink" width="447.000000pt" height="447.000000pt" viewBox="0,0,256,256"><g fill="#c2412d" fill-rule="nonzero" stroke="none" stroke-width="1" stroke-linecap="butt" stroke-linejoin="miter" stroke-miterlimit="10" stroke-dasharray="" stroke-dashoffset="0" font-family="none" font-weight="none" font-size="none" text-anchor="none" style="mix-blend-mode: normal"><g transform="translate(0.2677,-4.10366) scale(0.57271,0.57271)"><g transform="translate(0,447) scale(0.1,-0.1)"><path d="M2050,4109c-884,-91 -1594,-750 -1739,-1614c-47,-276 -47,-290 -22,-540c37,-370 194,-745 433,-1033c87,-103 189,-208 266,-269c26,-21 53,-44 60,-51c7,-6 57,-41 110,-76c458,-301 1010,-391 1576,-256c385,92 750,326 1008,647c289,358 430,725 445,1163c11,342 -48,637 -187,925c-152,316 -409,608 -700,797c-360,234 -831,350 -1250,307zM2230,3395c106,-16 176,-35 264,-72c85,-35 323,-165 449,-245c60,-37 112,-68 115,-68c4,1 27,27 52,60c59,76 77,86 125,69c37,-14 183,-128 198,-156c14,-24 -1,-75 -36,-125c-17,-25 -51,-73 -75,-107c-23,-34 -53,-68 -65,-76c-33,-21 -84,-4 -180,62c-268,183 -650,284 -925,244c-269,-39 -504,-192 -609,-396c-111,-217 -141,-458 -84,-680c25,-97 106,-264 162,-335c70,-89 210,-166 404,-222c72,-21 100,-23 280,-23c125,0 223,5 260,13c143,31 476,181 568,256c28,23 60,45 70,49c30,11 68,-19 132,-105c102,-137 124,-172 125,-196c0,-32 -67,-100 -141,-145c-97,-57 -127,-50 -200,49c-22,31 -47,58 -55,61c-7,3 -44,-17 -81,-45c-191,-142 -420,-268 -538,-297c-166,-41 -448,-58 -595,-35c-278,44 -479,146 -628,318c-80,94 -131,182 -192,332c-93,229 -120,356 -120,555c0,191 28,335 95,503c63,155 187,345 291,443c150,142 367,252 590,298c163,34 214,36 344,16z"></path><path d="M2431,3194c-12,-15 -21,-35 -21,-45c0,-28 36,-59 68,-59c57,0 83,69 42,110c-28,28 -64,25 -89,-6z"></path><path d="M1629,3101c-60,-61 -24,-151 61,-151c55,0 90,34 90,87c-1,86 -91,124 -151,64z"></path><path d="M1099,2273c-80,-49 -79,-179 1,-227c110,-64 243,61 185,174c-34,66 -124,92 -186,53z"></path><path d="M1629,1321c-60,-61 -23,-156 61,-156c53,0 90,38 90,91c0,47 -45,94 -90,94c-22,0 -41,-9 -61,-29z"></path><path d="M2430,1190c-27,-27 -25,-56 5,-85c29,-30 58,-32 85,-5c24,24 26,57 4,88c-19,28 -67,29 -94,2z"></path></g></g></g></svg>